<?xml version="1.0" encoding="utf-8"?>
<!-- Generator: Adobe Illustrator 16.0.0, SVG Export Plug-In . SVG Version: 6.00 Build 0)  -->
<!DOCTYPE svg PUBLIC "-//W3C//DTD SVG 1.1//EN" "http://www.w3.org/Graphics/SVG/1.1/DTD/svg11.dtd">
<svg version="1.1" id="Layer_1" xmlns="http://www.w3.org/2000/svg" xmlns:xlink="http://www.w3.org/1999/xlink" x="0px" y="0px"
	 width="32px" height="32px" viewBox="0 0 32 32" enable-background="new 0 0 32 32" xml:space="preserve">
<path fill="#C6C6C6" d="M16.009,30.893c-2.424,0-4.553-1.604-5.246-3.858H1.419l4.247-8.372v-7.548
	c0-5.629,4.629-10.188,10.343-10.188c5.661,0,10.32,4.557,10.32,10.188v7.548l4.252,8.372h-9.354
	C20.557,29.289,18.424,30.893,16.009,30.893z M3.275,25.904h8.402l0.103,0.455c0.412,1.967,2.175,3.387,4.229,3.387
	c2.031,0,3.802-1.42,4.185-3.387l0.111-0.455h8.413L25.18,18.79v-7.678c0-4.994-4.121-9.052-9.171-9.052
	c-5.078,0-9.196,4.058-9.196,9.052l-0.059,7.921L3.275,25.904z M16.009,28.964c-1.469,0-2.819-0.925-3.298-2.288l-0.276-0.771h7.124
	l-0.269,0.752C18.786,28.039,17.479,28.964,16.009,28.964z M14.255,27.032c0.871,0.993,2.626,0.987,3.498,0H14.255z"/>
</svg>
