<?xml version="1.0" encoding="utf-8"?>
<!-- Generator: Adobe Illustrator 16.0.0, SVG Export Plug-In . SVG Version: 6.00 Build 0)  -->
<!DOCTYPE svg PUBLIC "-//W3C//DTD SVG 1.1//EN" "http://www.w3.org/Graphics/SVG/1.1/DTD/svg11.dtd">
<svg version="1.1" id="Layer_1" xmlns="http://www.w3.org/2000/svg" xmlns:xlink="http://www.w3.org/1999/xlink" x="0px" y="0px"
	 width="32px" height="32px" viewBox="0 0 32 32" enable-background="new 0 0 32 32" xml:space="preserve">
<path fill="#C6C6C6" d="M15.92,28.085l-0.258-0.167c-0.564-0.363-13.801-9.003-13.801-16.36c0-4.922,3.059-7.98,7.982-7.98
	c2.334,0,4.562,1.042,6.072,2.816c1.511-1.773,3.739-2.816,6.075-2.816c4.398,0,7.979,3.58,7.979,7.98
	c0,7.027-13.23,15.978-13.794,16.355L15.92,28.085z M9.843,4.512c-4.413,0-7.048,2.634-7.048,7.046
	c0,6.319,11.255,14.153,13.116,15.404c1.854-1.289,13.125-9.379,13.125-15.404c0-3.885-3.16-7.046-7.046-7.046
	c-2.24,0-4.371,1.088-5.697,2.911l-0.377,0.519l-0.377-0.519C14.211,5.6,12.083,4.512,9.843,4.512z"/>
</svg>
