<?xml version="1.0" encoding="utf-8"?>
<!-- Generator: Adobe Illustrator 16.0.0, SVG Export Plug-In . SVG Version: 6.00 Build 0)  -->
<!DOCTYPE svg PUBLIC "-//W3C//DTD SVG 1.1//EN" "http://www.w3.org/Graphics/SVG/1.1/DTD/svg11.dtd">
<svg version="1.1" id="Layer_1" xmlns="http://www.w3.org/2000/svg" xmlns:xlink="http://www.w3.org/1999/xlink" x="0px" y="0px"
	 width="32px" height="32px" viewBox="0 0 32 32" enable-background="new 0 0 32 32" xml:space="preserve">
<path fill="#C6C6C6" d="M29.925,28.155H2.101V3.741h27.824V28.155z M2.663,27.593h26.7V4.303h-26.7V27.593z M24.813,23.042H7.212
	v-3.765l5.355-8.926l7.09,8.625l5.153-3.565v7.631H24.813z M7.774,22.48H24.25v-6l-4.697,3.25l-6.913-8.41L7.774,19.43V22.48z
	 M21.977,14.524c-1.563,0-2.836-1.272-2.836-2.835c0-1.564,1.272-2.837,2.836-2.837c1.564,0,2.836,1.272,2.836,2.837
	C24.813,13.252,23.54,14.524,21.977,14.524z M21.977,9.413c-1.254,0-2.273,1.021-2.273,2.275s1.021,2.274,2.273,2.274
	c1.254,0,2.273-1.02,2.273-2.274S23.23,9.413,21.977,9.413z"/>
</svg>
