<?xml version="1.0" encoding="utf-8"?>
<!-- Generator: Adobe Illustrator 16.0.0, SVG Export Plug-In . SVG Version: 6.00 Build 0)  -->
<!DOCTYPE svg PUBLIC "-//W3C//DTD SVG 1.1//EN" "http://www.w3.org/Graphics/SVG/1.1/DTD/svg11.dtd">
<svg version="1.1" id="Layer_1" xmlns="http://www.w3.org/2000/svg" xmlns:xlink="http://www.w3.org/1999/xlink" x="0px" y="0px"
	 width="32px" height="32px" viewBox="0 0 32 32" enable-background="new 0 0 32 32" xml:space="preserve">
<path fill="#C6C6C6" d="M19.643,6.079v3.68c1.029,0.427,1.977,1.04,2.797,1.819c1.719,1.636,2.664,3.809,2.664,6.123
	c0,2.314-0.945,4.488-2.664,6.127c-1.719,1.632-4.008,2.535-6.438,2.535c-2.431,0-4.717-0.903-6.437-2.535
	c-1.719-1.639-2.666-3.813-2.666-6.127c0-2.314,0.946-4.486,2.666-6.123c0.818-0.779,1.766-1.392,2.794-1.819v-3.68
	C7.095,7.569,3.256,12.208,3.256,17.7c0,6.698,5.706,12.127,12.745,12.127c7.038,0,12.743-5.429,12.743-12.127
	C28.744,12.208,24.906,7.569,19.643,6.079z M14.181,2.11h3.641v13.857h-3.641V2.11z"/>
</svg>
