<?xml version="1.0" encoding="utf-8"?>
<!-- Generator: Adobe Illustrator 16.0.0, SVG Export Plug-In . SVG Version: 6.00 Build 0)  -->
<!DOCTYPE svg PUBLIC "-//W3C//DTD SVG 1.1//EN" "http://www.w3.org/Graphics/SVG/1.1/DTD/svg11.dtd">
<svg version="1.1" id="Layer_1" xmlns="http://www.w3.org/2000/svg" xmlns:xlink="http://www.w3.org/1999/xlink" x="0px" y="0px"
	 width="32px" height="32px" viewBox="0 0 32 32" enable-background="new 0 0 32 32" xml:space="preserve">
<path fill="#C6C6C6" d="M15.896,29.984c-7.131,0-12.933-5.53-12.933-12.328c0-5.417,3.801-10.276,9.243-11.816l0.599-0.17v4.535
	l-0.291,0.121c-0.963,0.4-1.834,0.967-2.588,1.685c-1.586,1.51-2.46,3.515-2.46,5.646c0,2.132,0.874,4.138,2.46,5.649
	c1.595,1.516,3.715,2.35,5.969,2.35c2.257,0,4.376-0.834,5.97-2.35c1.586-1.516,2.459-3.521,2.459-5.649
	c0-2.129-0.873-4.134-2.459-5.646c-0.76-0.72-1.631-1.287-2.59-1.685l-0.291-0.12V5.67l0.6,0.17
	c5.441,1.54,9.242,6.399,9.242,11.816C28.826,24.454,23.025,29.984,15.896,29.984z M11.863,6.932
	c-4.716,1.601-7.958,5.927-7.958,10.724c0,6.277,5.379,11.388,11.991,11.388s11.989-5.108,11.989-11.388
	c0-4.797-3.242-9.123-7.959-10.724v2.65c0.953,0.433,1.822,1.019,2.588,1.746c1.777,1.693,2.754,3.94,2.754,6.329
	c0,2.39-0.977,4.638-2.752,6.331c-1.771,1.684-4.123,2.609-6.62,2.609c-2.497,0-4.847-0.928-6.618-2.608
	c-1.775-1.691-2.753-3.94-2.753-6.332c0-2.391,0.978-4.638,2.752-6.328c0.762-0.725,1.63-1.311,2.586-1.746V6.932z M18.146,16.433
	h-4.501V1.941h4.501V16.433z M14.587,15.492h2.618V2.883h-2.618V15.492z"/>
</svg>
