<?xml version="1.0" encoding="utf-8"?>
<!-- Generator: Adobe Illustrator 16.0.0, SVG Export Plug-In . SVG Version: 6.00 Build 0)  -->
<!DOCTYPE svg PUBLIC "-//W3C//DTD SVG 1.1//EN" "http://www.w3.org/Graphics/SVG/1.1/DTD/svg11.dtd">
<svg version="1.1" id="Layer_1" xmlns="http://www.w3.org/2000/svg" xmlns:xlink="http://www.w3.org/1999/xlink" x="0px" y="0px"
	 width="32px" height="32px" viewBox="0 0 32 32" enable-background="new 0 0 32 32" xml:space="preserve">
<path fill="#C6C6C6" d="M15.28,28.998c-2.197,0-3.791-1.626-3.791-3.865c0-2.273,1.559-3.863,3.791-3.863
	c2.244,0,3.781,1.549,3.826,3.854C19.105,27.408,17.533,28.998,15.28,28.998z M15.28,22.27c-1.669,0-2.791,1.15-2.791,2.863
	c0,1.688,1.148,2.865,2.791,2.865c1.691,0,2.826-1.15,2.826-2.865C18.072,23.396,16.963,22.27,15.28,22.27z"/>
<path fill="#C6C6C6" d="M18.365,21.266h-5.9l-0.054-1.441c-0.123-2.105,0.651-4.165,2.3-6.11c1.186-1.445,2.029-2.55,2.029-3.558
	c0-1.11-0.744-1.688-2.21-1.719c-1.11,0-2.498,0.419-3.364,1.021l-0.559,0.388L9.024,4.779L9.375,4.58
	c0.837-0.475,3.14-1.579,6.418-1.579c5.635,0,7.634,3.376,7.634,6.267c0,2.904-1.751,4.832-3.157,6.38l-0.15,0.166
	c-1.244,1.418-1.787,2.741-1.754,4.275V21.266z M13.428,20.266h3.938V20.1c-0.038-1.769,0.6-3.345,2.008-4.951l0.155-0.173
	c1.359-1.495,2.898-3.19,2.898-5.708c0-2.546-1.742-5.267-6.634-5.267c-2.658,0-4.609,0.774-5.571,1.26l0.945,3.029
	c0.994-0.522,2.272-0.854,3.371-0.854c2.008,0.042,3.199,1.058,3.199,2.719c0,1.443-1.098,2.781-2.26,4.198
	c-1.503,1.773-2.178,3.543-2.069,5.42L13.428,20.266z"/>
</svg>
