<?xml version="1.0" encoding="utf-8"?>
<!-- Generator: Adobe Illustrator 16.0.0, SVG Export Plug-In . SVG Version: 6.00 Build 0)  -->
<!DOCTYPE svg PUBLIC "-//W3C//DTD SVG 1.1//EN" "http://www.w3.org/Graphics/SVG/1.1/DTD/svg11.dtd">
<svg version="1.1" id="Layer_1" xmlns="http://www.w3.org/2000/svg" xmlns:xlink="http://www.w3.org/1999/xlink" x="0px" y="0px"
	 width="32px" height="32px" viewBox="0 0 32 32" enable-background="new 0 0 32 32" xml:space="preserve">
<path fill="#C6C6C6" d="M25.693,5.82c-1.562-1.553-3.392-2.663-5.348-3.327V6.68c0.941,0.47,1.834,1.08,2.614,1.865
	c3.908,3.909,3.908,10.266,0,14.172c-3.905,3.906-10.26,3.906-14.174,0c-3.903-3.91-3.903-10.263,0-14.172
	c0.011-0.013,0.041-0.032,0.055-0.049h0.003l2.317,2.312l-0.015-7.341L3.81,3.454L6.117,5.76C6.102,5.785,6.082,5.809,6.063,5.82
	c-5.418,5.416-5.418,14.208,0,19.622c5.425,5.423,14.205,5.423,19.63,0C31.105,20.027,31.111,11.235,25.693,5.82z"/>
</svg>
