<?xml version="1.0" encoding="utf-8"?>
<!-- Generator: Adobe Illustrator 16.0.0, SVG Export Plug-In . SVG Version: 6.00 Build 0)  -->
<!DOCTYPE svg PUBLIC "-//W3C//DTD SVG 1.1//EN" "http://www.w3.org/Graphics/SVG/1.1/DTD/svg11.dtd">
<svg version="1.1" id="Layer_1" xmlns="http://www.w3.org/2000/svg" xmlns:xlink="http://www.w3.org/1999/xlink" x="0px" y="0px"
	 width="32px" height="32px" viewBox="0 0 32 32" enable-background="new 0 0 32 32" xml:space="preserve">
<path fill="#C6C6C6" d="M16.091,30.266c-3.749,0-7.276-1.461-9.93-4.113c-2.651-2.65-4.111-6.174-4.111-9.925
	c0-3.628,1.366-7.045,3.855-9.664L3.192,3.851L11.9,3.866l0.018,8.708l-2.716-2.71c-3.39,3.659-3.309,9.42,0.257,12.989
	c1.77,1.767,4.125,2.738,6.631,2.738s4.858-0.973,6.625-2.738c1.77-1.766,2.742-4.121,2.742-6.625c0-2.507-0.975-4.861-2.742-6.629
	c-0.684-0.688-1.506-1.274-2.445-1.744l-0.246-0.123V2.735l0.588,0.199c2.041,0.694,3.861,1.826,5.41,3.366
	c2.65,2.65,4.11,6.175,4.109,9.927c-0.001,3.75-1.46,7.274-4.109,9.923C23.366,28.805,19.839,30.266,16.091,30.266z M6.788,6.932
	c-2.482,2.481-3.849,5.783-3.849,9.295c0,3.515,1.367,6.813,3.85,9.296c2.486,2.483,5.79,3.854,9.302,3.854
	c3.513,0,6.813-1.369,9.302-3.854c2.48-2.482,3.849-5.783,3.849-9.296c0.001-3.514-1.365-6.815-3.849-9.297
	c-1.3-1.293-2.806-2.279-4.48-2.938v3.195c0.925,0.49,1.742,1.089,2.434,1.784c1.934,1.935,3,4.512,3,7.257
	c0,2.745-1.066,5.32-3.002,7.254c-1.935,1.935-4.511,2.998-7.254,2.998c-2.743,0-5.321-1.063-7.26-2.996
	C4.834,19.48,4.834,12.97,8.83,8.97l0.133-0.167l0.419-0.012l1.643,1.636l-0.012-5.674l-5.669-0.01l1.747,1.746L6.788,6.932z"/>
</svg>
