<?xml version="1.0" encoding="utf-8"?>
<!-- Generator: Adobe Illustrator 16.0.0, SVG Export Plug-In . SVG Version: 6.00 Build 0)  -->
<!DOCTYPE svg PUBLIC "-//W3C//DTD SVG 1.1//EN" "http://www.w3.org/Graphics/SVG/1.1/DTD/svg11.dtd">
<svg version="1.1" id="Layer_1" xmlns="http://www.w3.org/2000/svg" xmlns:xlink="http://www.w3.org/1999/xlink" x="0px" y="0px"
	 width="32px" height="32px" viewBox="0 0 32 32" enable-background="new 0 0 32 32" xml:space="preserve">
<circle fill="#C6C6C6" cx="16.067" cy="23.325" r="3.299"/>
<path fill="#C6C6C6" d="M23.949,15.378c-0.049-0.051-0.102-0.096-0.151-0.141l-0.146-0.141c-0.026-0.027-0.053-0.045-0.086-0.07
	c-4.265-3.873-10.791-3.721-14.861,0.35l-0.478,0.48l-0.659,0.66c-0.805,0.805-0.802,2.117,0.006,2.922
	c0.807,0.81,2.119,0.812,2.921,0.006l1.142-1.141c2.586-2.586,6.798-2.586,9.384,0l0.822,0.797c0.797,0.797,2.098,0.795,2.897-0.008
	c0.388-0.385,0.603-0.9,0.603-1.449c0.004-0.545-0.21-1.061-0.598-1.444L23.949,15.378z"/>
<path fill="#C6C6C6" d="M29.566,11.3l-0.685-0.684c-0.003-0.004-0.003-0.008-0.008-0.008l-0.542-0.545
	c-0.096-0.094-0.199-0.176-0.309-0.246c-6.951-6.104-17.522-5.916-24.254,0.559c-0.032,0.031-0.069,0.049-0.101,0.082l-1.237,1.24
	c-0.736,0.732-0.73,1.924,0.008,2.662c0.735,0.738,1.928,0.742,2.663,0.008l1.237-1.236c0.008-0.012,0.014-0.02,0.024-0.027
	c5.44-5.258,14.073-5.289,19.56-0.107l0.976,0.975c0.731,0.732,1.928,0.73,2.662-0.006C30.298,13.228,30.301,12.034,29.566,11.3z"/>
</svg>
