<?xml version="1.0" encoding="utf-8"?>
<!-- Generator: Adobe Illustrator 16.0.0, SVG Export Plug-In . SVG Version: 6.00 Build 0)  -->
<!DOCTYPE svg PUBLIC "-//W3C//DTD SVG 1.1//EN" "http://www.w3.org/Graphics/SVG/1.1/DTD/svg11.dtd">
<svg version="1.1" id="Layer_1" xmlns="http://www.w3.org/2000/svg" xmlns:xlink="http://www.w3.org/1999/xlink" x="0px" y="0px"
	 width="32px" height="32px" viewBox="0 0 32 32" enable-background="new 0 0 32 32" xml:space="preserve">
<path fill="#C6C6C6" d="M29.371,19.93l-9.439,9.438c-0.39,0.392-0.9,0.587-1.414,0.587c-0.512,0-1.022-0.195-1.412-0.587
	L2.586,14.85c-0.462-0.46-0.67-1.12-0.556-1.763l1.428-8.012c0.146-0.824,0.793-1.471,1.618-1.617l8.011-1.428
	c0.645-0.113,1.302,0.093,1.765,0.556l14.52,14.52C30.152,17.885,30.152,19.15,29.371,19.93z M9.56,6.686
	c-0.789-0.799-2.076-0.81-2.875-0.022c-0.8,0.788-0.808,2.075-0.021,2.875c0.787,0.798,2.075,0.809,2.874,0.021
	C10.338,8.771,10.347,7.484,9.56,6.686z"/>
</svg>
