<?xml version="1.0" encoding="utf-8"?>
<!-- Generator: Adobe Illustrator 16.0.0, SVG Export Plug-In . SVG Version: 6.00 Build 0)  -->
<!DOCTYPE svg PUBLIC "-//W3C//DTD SVG 1.1//EN" "http://www.w3.org/Graphics/SVG/1.1/DTD/svg11.dtd">
<svg version="1.1" id="Layer_1" xmlns="http://www.w3.org/2000/svg" xmlns:xlink="http://www.w3.org/1999/xlink" x="0px" y="0px"
	 width="32px" height="32px" viewBox="0 0 32 32" enable-background="new 0 0 32 32" xml:space="preserve">
<path fill="#C6C6C6" d="M25.449,21.769h-1.84c-2.032,0-3.68-1.647-3.68-3.68v-1.182c0.813-0.968,1.397-2.112,1.761-3.321
	c0.037-0.204,0.233-0.305,0.365-0.445c0.704-0.705,0.843-1.893,0.313-2.739c-0.071-0.128-0.201-0.24-0.193-0.399
	c0-1.079,0.005-2.16-0.002-3.238c-0.028-1.302-0.4-2.656-1.313-3.619c-0.737-0.779-1.748-1.243-2.792-1.441
	c-1.318-0.251-2.699-0.239-4.005,0.094c-1.132,0.286-2.195,0.949-2.853,1.931c-0.583,0.854-0.837,1.892-0.881,2.915
	c-0.016,1.098-0.003,2.198-0.007,3.299c0.025,0.22-0.162,0.369-0.247,0.551c-0.498,0.903-0.278,2.133,0.521,2.79
	c0.203,0.14,0.241,0.396,0.314,0.616c0.349,1.086,0.928,2.092,1.659,2.968v1.222c0,2.032-1.647,3.68-3.68,3.68h-1.84
	c0,0-3.335,0.92-5.52,5.52v1.84c0,1.018,0.823,1.84,1.84,1.84h25.758c1.018,0,1.84-0.822,1.84-1.84v-1.84
	C28.784,22.688,25.449,21.769,25.449,21.769z"/>
</svg>
