<?xml version="1.0" encoding="utf-8"?>
<!-- Generator: Adobe Illustrator 16.0.0, SVG Export Plug-In . SVG Version: 6.00 Build 0)  -->
<!DOCTYPE svg PUBLIC "-//W3C//DTD SVG 1.1//EN" "http://www.w3.org/Graphics/SVG/1.1/DTD/svg11.dtd">
<svg version="1.1" id="Layer_1" xmlns="http://www.w3.org/2000/svg" xmlns:xlink="http://www.w3.org/1999/xlink" x="0px" y="0px"
	 width="32px" height="32px" viewBox="0 0 32 32" enable-background="new 0 0 32 32" xml:space="preserve">
<path fill="#99D5C9" d="M20.891,5.806v16.299c0,2.701-2.189,4.892-4.891,4.892s-4.891-2.188-4.891-4.892V7.437
	c0-1.801,1.46-3.261,3.261-3.261c1.799,0,3.259,1.46,3.259,3.261v14.668c0,0.902-0.73,1.631-1.63,1.631
	c-0.901,0-1.629-0.729-1.629-1.631V9.066h-1.63v13.04c0,1.803,1.458,3.263,3.259,3.263s3.259-1.46,3.259-3.263V7.437
	c0-2.702-2.188-4.891-4.888-4.891c-2.703,0-4.891,2.189-4.891,4.891V22.92c0.402,3.217,3.196,5.706,6.52,5.706
	s6.118-2.489,6.521-5.706V5.806H20.891z"/>
</svg>
