<?xml version="1.0" encoding="utf-8"?>
<!-- Generator: Adobe Illustrator 16.0.0, SVG Export Plug-In . SVG Version: 6.00 Build 0)  -->
<!DOCTYPE svg PUBLIC "-//W3C//DTD SVG 1.1//EN" "http://www.w3.org/Graphics/SVG/1.1/DTD/svg11.dtd">
<svg version="1.1" id="Layer_1" xmlns="http://www.w3.org/2000/svg" xmlns:xlink="http://www.w3.org/1999/xlink" x="0px" y="0px"
	 width="32px" height="32px" viewBox="0 0 32 32" enable-background="new 0 0 32 32" xml:space="preserve">
<path fill="#99D5C9" d="M10.75,16h-3.5v-3.5h3.5V16z M17.75,12.5h-3.5V16h3.5V12.5z M24.75,12.5h-3.501V16h3.501V12.5z M10.75,17.75
	h-3.5v3.5h3.5V17.75z M17.75,17.75h-3.5v3.5h3.5V17.75z M24.75,17.75h-3.501v3.5h3.501V17.75z M10.75,23h-3.5v3.501h3.5V23z
	 M17.75,23h-3.5v3.501h3.5V23z M9,7.25c0.966,0,1.75-0.783,1.75-1.751V3.75C10.75,2.782,9.966,2,9,2S7.249,2.782,7.249,3.75V5.5
	C7.249,6.468,8.034,7.25,9,7.25z M30,5.5V30H2V5.5h4.375c0,1.448,1.177,2.625,2.625,2.625c1.447,0,2.625-1.177,2.625-2.625h8.75
	c0,1.448,1.177,2.625,2.625,2.625c1.445,0,2.625-1.177,2.625-2.625H30z M28.25,10.75H3.75v17.5h24.5V10.75z M23,7.25
	c0.968,0,1.75-0.783,1.75-1.751V3.75C24.75,2.782,23.968,2,23,2s-1.751,0.782-1.751,1.75V5.5C21.249,6.468,22.032,7.25,23,7.25z"/>
</svg>
