<?xml version="1.0" encoding="utf-8"?>
<!-- Generator: Adobe Illustrator 16.0.0, SVG Export Plug-In . SVG Version: 6.00 Build 0)  -->
<!DOCTYPE svg PUBLIC "-//W3C//DTD SVG 1.1//EN" "http://www.w3.org/Graphics/SVG/1.1/DTD/svg11.dtd">
<svg version="1.1" id="Layer_1" xmlns="http://www.w3.org/2000/svg" xmlns:xlink="http://www.w3.org/1999/xlink" x="0px" y="0px"
	 width="32px" height="32px" viewBox="0 0 32 32" enable-background="new 0 0 32 32" xml:space="preserve">
<path fill="#99D5C9" d="M29.13,12.158v-3.83v-0.42c0-2.193-1.937-3.982-4.342-4.043l0,0v0.97v0.002v0.977v0.002V6.37
	c0,1.425-1.16,2.583-2.584,2.583c-1.425,0-2.583-1.158-2.583-2.583V5.802V4.83V3.858h-7.324V4.83v0.972V6.37
	c0,1.425-1.159,2.583-2.584,2.583c-1.424,0-2.582-1.158-2.582-2.583V5.823V5.82V4.84l0,0V3.868l0,0c-2.367,0.1-4.26,1.872-4.26,4.04
	v0.42v3.83v13.49c0,2.463,2.005,4.469,4.469,4.469h17.32c2.464,0,4.47-2.006,4.47-4.469V12.158L29.13,12.158z M27.186,25.646
	c0,1.394-1.131,2.525-2.524,2.525H7.341c-1.392,0-2.525-1.133-2.525-2.525V12.157h22.37V25.646z"/>
<path fill="#99D5C9" d="M8.591,3.124v0.734V4.83v0.972V6.37c0,0.622,0.502,1.124,1.122,1.124c0.624,0,1.127-0.502,1.127-1.124V5.802
	V4.83V3.858V3.124C10.839,2.502,10.336,2,9.712,2C9.093,2,8.591,2.502,8.591,3.124z"/>
<path fill="#99D5C9" d="M22.204,2c-0.62,0-1.124,0.502-1.124,1.124v0.734v0.974v0.972v0.568c0,0.621,0.504,1.125,1.124,1.125
	c0.622,0,1.125-0.504,1.125-1.125v-0.57V4.83V3.858V3.124C23.328,2.502,22.823,2,22.204,2z"/>
<path fill="#99D5C9" d="M12.746,25.591c1.268,0,2.226-0.351,2.874-1.062c0.647-0.709,0.97-1.529,0.97-2.465
	c0-0.89-0.275-1.59-0.831-2.102c-0.15-0.139-0.285-0.248-0.406-0.331c-0.225-0.149-0.241-0.258-0.031-0.42
	c0.119-0.091,0.233-0.203,0.347-0.333c0.386-0.445,0.58-0.994,0.58-1.646c0-0.917-0.323-1.65-0.97-2.196
	c-0.648-0.546-1.5-0.818-2.556-0.818c-0.567,0-1.046,0.067-1.438,0.204c-0.389,0.137-0.727,0.334-1.01,0.594
	c-0.38,0.366-0.661,0.766-0.838,1.197c-0.118,0.346-0.198,0.706-0.242,1.078c-0.033,0.266,0.178,0.484,0.448,0.484h1.052
	c0.27,0,0.476-0.221,0.516-0.486c0.048-0.322,0.152-0.598,0.316-0.817c0.241-0.325,0.617-0.487,1.127-0.487
	c0.447,0,0.794,0.132,1.039,0.396c0.245,0.266,0.369,0.605,0.369,1.029c0,0.648-0.241,1.08-0.722,1.297
	c-0.208,0.093-0.538,0.157-0.986,0.188c-0.268,0.017-0.486,0.234-0.486,0.502v0.582c0,0.27,0.218,0.483,0.487,0.498
	c0.475,0.026,0.84,0.092,1.094,0.193c0.587,0.245,0.88,0.729,0.88,1.456c0,0.547-0.159,0.968-0.477,1.261
	c-0.314,0.293-0.686,0.439-1.112,0.439c-0.695,0-1.173-0.268-1.436-0.801c-0.086-0.178-0.145-0.381-0.182-0.612
	c-0.038-0.265-0.25-0.485-0.518-0.485H9.442c-0.269,0-0.479,0.219-0.449,0.485c0.072,0.659,0.238,1.209,0.497,1.647
	C10.098,25.08,11.183,25.591,12.746,25.591z"/>
<path fill="#99D5C9" d="M18.79,17.7h1.625c0.269,0,0.485,0.216,0.485,0.485v6.646c0,0.266,0.22,0.482,0.486,0.482h1.252
	c0.269,0,0.487-0.217,0.487-0.482V14.758c0-0.268-0.22-0.486-0.487-0.486H21.8c-0.268,0-0.489,0.102-0.516,0.223
	c-0.015,0.065-0.032,0.138-0.056,0.22c-0.097,0.33-0.24,0.594-0.427,0.792c-0.272,0.288-0.628,0.481-1.063,0.578
	c-0.202,0.045-0.521,0.083-0.949,0.111c-0.268,0.019-0.484,0.243-0.484,0.513v0.506C18.305,17.48,18.521,17.7,18.79,17.7z"/>
</svg>
