<?xml version="1.0" encoding="utf-8"?>
<!-- Generator: Adobe Illustrator 16.0.0, SVG Export Plug-In . SVG Version: 6.00 Build 0)  -->
<!DOCTYPE svg PUBLIC "-//W3C//DTD SVG 1.1//EN" "http://www.w3.org/Graphics/SVG/1.1/DTD/svg11.dtd">
<svg version="1.1" id="Layer_1" xmlns="http://www.w3.org/2000/svg" xmlns:xlink="http://www.w3.org/1999/xlink" x="0px" y="0px"
	 width="32px" height="32px" viewBox="0 0 32 32" enable-background="new 0 0 32 32" xml:space="preserve">
<path fill="#99D5C9" d="M27.859,4.139c-2.607-2.608-4.563-2.217-4.563-2.217l-9.133,9.131L3.727,21.489l-1.826,8.608l8.608-1.824
	l10.437-10.438l9.133-9.132C30.078,8.705,30.471,6.748,27.859,4.139z M9.997,27.236L7.063,27.87
	c-0.284-0.53-0.624-1.062-1.249-1.685C5.19,25.561,4.66,25.221,4.13,24.938l0.633-2.936l0.848-0.85c0,0,1.597,0.031,3.399,1.836
	c1.803,1.804,1.836,3.402,1.836,3.402L9.997,27.236z"/>
</svg>
