<?xml version="1.0" encoding="utf-8"?>
<!-- Generator: Adobe Illustrator 16.0.0, SVG Export Plug-In . SVG Version: 6.00 Build 0)  -->
<!DOCTYPE svg PUBLIC "-//W3C//DTD SVG 1.1//EN" "http://www.w3.org/Graphics/SVG/1.1/DTD/svg11.dtd">
<svg version="1.1" id="Layer_11" xmlns="http://www.w3.org/2000/svg" xmlns:xlink="http://www.w3.org/1999/xlink" x="0px" y="0px"
	 width="100px" height="100px" viewBox="0 0 100 100" enable-background="new 0 0 100 100" xml:space="preserve">
<path fill="#99D5C9" d="M58.289,27.857c3.705,2.323,6.303,6.254,6.777,10.817c1.51,0.706,3.188,1.112,4.965,1.112
	c6.492,0,11.752-5.261,11.752-11.751c0-6.491-5.26-11.752-11.752-11.752C63.602,16.284,58.387,21.451,58.289,27.857z M50.59,51.919
	c6.49,0,11.752-5.262,11.752-11.752S57.08,28.416,50.59,28.416c-6.49,0-11.754,5.262-11.754,11.752S44.1,51.919,50.59,51.919z
	 M55.574,52.72h-9.971c-8.297,0-15.047,6.751-15.047,15.048v12.195l0.031,0.191l0.84,0.263c7.918,2.474,14.797,3.299,20.46,3.299
	c11.059,0,17.469-3.153,17.864-3.354l0.785-0.397h0.084V67.768C70.621,59.471,63.871,52.72,55.574,52.72z M75.018,40.588h-9.895
	c-0.107,3.959-1.797,7.524-4.469,10.088c7.375,2.193,12.77,9.032,12.77,17.11v3.758c9.77-0.358,15.4-3.127,15.771-3.313l0.785-0.398
	h0.084V55.634C90.064,47.338,83.314,40.588,75.018,40.588z M29.969,39.787c2.299,0,4.438-0.671,6.25-1.814
	c0.576-3.757,2.59-7.04,5.467-9.276c0.012-0.22,0.033-0.438,0.033-0.66c0-6.491-5.262-11.752-11.75-11.752
	c-6.492,0-11.752,5.261-11.752,11.752C18.217,34.526,23.477,39.787,29.969,39.787z M40.523,50.676
	c-2.66-2.551-4.344-6.097-4.467-10.032c-0.367-0.027-0.73-0.056-1.104-0.056h-9.971c-8.297,0-15.047,6.75-15.047,15.046v12.197
	l0.031,0.188l0.84,0.265c6.352,1.983,12.021,2.897,16.945,3.185v-3.683C27.752,59.708,33.146,52.87,40.523,50.676z"/>
</svg>
