<?xml version="1.0" encoding="utf-8"?>
<!-- Generator: Adobe Illustrator 16.0.0, SVG Export Plug-In . SVG Version: 6.00 Build 0)  -->
<!DOCTYPE svg PUBLIC "-//W3C//DTD SVG 1.1//EN" "http://www.w3.org/Graphics/SVG/1.1/DTD/svg11.dtd">
<svg version="1.1" id="Layer_1" xmlns="http://www.w3.org/2000/svg" xmlns:xlink="http://www.w3.org/1999/xlink" x="0px" y="0px"
	 width="32px" height="32px" viewBox="0 0 32 32" enable-background="new 0 0 32 32" xml:space="preserve">
<path fill="#99D5C9" d="M24.966,7.944h-2.539V4.542H9.646v3.403h-2.54V4.122C7.106,2.952,8.058,2,9.228,2h13.618
	c1.168,0,2.12,0.952,2.12,2.122V7.944z M23.266,7.106h0.862V4.122c0-0.708-0.576-1.284-1.282-1.284H9.228
	c-0.708,0-1.283,0.576-1.283,1.284v2.984h0.864V3.703h14.457V7.106z"/>
<path fill="#99D5C9" d="M22.846,30.072H9.228c-1.169,0-2.121-0.953-2.121-2.123v-4.686H4.122C2.952,23.266,2,22.313,2,21.143V10.931
	c0-1.17,0.952-2.122,2.122-2.122h23.831c1.167,0,2.12,0.952,2.12,2.122v10.211c0,1.17-0.953,2.123-2.12,2.123h-2.986v4.685
	C24.966,29.119,24.014,30.072,22.846,30.072z M4.122,9.646c-0.708,0-1.284,0.576-1.284,1.284v10.21c0,0.709,0.576,1.285,1.284,1.285
	h3.823v5.522c0,0.71,0.576,1.284,1.283,1.284h13.618c0.706,0,1.282-0.574,1.282-1.284v-5.522h3.824c0.707,0,1.282-0.576,1.282-1.285
	V10.931c0-0.708-0.575-1.284-1.282-1.284L4.122,9.646L4.122,9.646z M23.266,28.369H8.809V17.32h14.457V28.369z M9.646,27.53h12.78
	v-9.373H9.646V27.53z M26.251,14.753c-1.17,0-2.123-0.951-2.123-2.121c0-1.169,0.953-2.12,2.123-2.12c1.167,0,2.12,0.951,2.12,2.12
	C28.371,13.802,27.418,14.753,26.251,14.753z M26.251,11.35c-0.71,0-1.285,0.576-1.285,1.283c0,0.708,0.575,1.284,1.285,1.284
	c0.706,0,1.282-0.576,1.282-1.284S26.957,11.35,26.251,11.35z"/>
<rect x="11.082" y="19.977" fill="#99D5C9" width="9.545" height="0.838"/>
<rect x="11.082" y="23.352" fill="#99D5C9" width="9.545" height="0.838"/>
</svg>
