<?xml version="1.0" encoding="utf-8"?>
<!-- Generator: Adobe Illustrator 16.0.0, SVG Export Plug-In . SVG Version: 6.00 Build 0)  -->
<!DOCTYPE svg PUBLIC "-//W3C//DTD SVG 1.1//EN" "http://www.w3.org/Graphics/SVG/1.1/DTD/svg11.dtd">
<svg version="1.1" id="Layer_1" xmlns="http://www.w3.org/2000/svg" xmlns:xlink="http://www.w3.org/1999/xlink" x="0px" y="0px"
	 width="32px" height="32px" viewBox="0 0 32 32" enable-background="new 0 0 32 32" xml:space="preserve">
<path fill="#99D5C9" d="M15.57,21.77c-1.924,0-3.291,1.367-3.291,3.363c0,1.922,1.331,3.365,3.291,3.365
	c2.032,0,3.327-1.443,3.327-3.365C18.857,23.137,17.563,21.77,15.57,21.77z"/>
<path fill="#99D5C9" d="M16.084,3.502c-2.623,0-4.804,0.738-6.172,1.514l1.258,4.031c0.961-0.666,2.438-1.109,3.659-1.109
	c1.844,0.038,2.7,0.924,2.7,2.219c0,1.221-0.963,2.438-2.147,3.881c-1.662,1.961-2.291,3.885-2.182,5.769l0.036,0.961h4.918V20.1
	c-0.035-1.664,0.558-3.106,1.885-4.621c1.406-1.553,3.179-3.399,3.179-6.21C23.218,6.199,20.966,3.502,16.084,3.502z"/>
</svg>
