<?xml version="1.0" encoding="utf-8"?>
<!-- Generator: Adobe Illustrator 16.0.0, SVG Export Plug-In . SVG Version: 6.00 Build 0)  -->
<!DOCTYPE svg PUBLIC "-//W3C//DTD SVG 1.1//EN" "http://www.w3.org/Graphics/SVG/1.1/DTD/svg11.dtd">
<svg version="1.1" id="Layer_1" xmlns="http://www.w3.org/2000/svg" xmlns:xlink="http://www.w3.org/1999/xlink" x="0px" y="0px"
	 width="32px" height="32px" viewBox="0 0 32 32" enable-background="new 0 0 32 32" xml:space="preserve">
<path fill="#99D5C9" d="M16.127,26.792c-1.983,0-3.597-1.614-3.597-3.599c0-1.981,1.613-3.596,3.597-3.596
	c1.982,0,3.596,1.613,3.596,3.596C19.723,25.178,18.109,26.792,16.127,26.792z M16.127,20.46c-1.508,0-2.734,1.228-2.734,2.733
	c0,1.508,1.227,2.736,2.734,2.736s2.732-1.229,2.732-2.736C18.859,21.688,17.634,20.46,16.127,20.46z"/>
<path fill="#99D5C9" d="M9.381,20.479c-0.647,0-1.255-0.252-1.712-0.709c-0.457-0.455-0.708-1.063-0.71-1.709
	c0-0.646,0.25-1.25,0.704-1.707l1.09-1.093c2.036-2.036,4.739-3.156,7.612-3.156c2.681,0,5.255,0.996,7.248,2.805
	c0.035,0.026,0.066,0.051,0.098,0.082l0.135,0.13c0.063,0.055,0.112,0.1,0.158,0.149l0.762,0.784
	c0.448,0.445,0.698,1.046,0.694,1.688c0,0.641-0.251,1.243-0.705,1.694c-0.453,0.455-1.058,0.705-1.7,0.705l0,0
	c-0.64,0-1.24-0.248-1.689-0.699l-0.784-0.758c-1.125-1.125-2.615-1.74-4.204-1.74s-3.08,0.615-4.199,1.734l-1.095,1.094
	C10.63,20.229,10.025,20.479,9.381,20.479z M16.366,12.967c-2.642,0-5.129,1.031-7.001,2.903l-1.091,1.094
	c-0.292,0.292-0.452,0.681-0.452,1.097s0.163,0.807,0.457,1.099c0.587,0.589,1.611,0.59,2.194,0.006l1.096-1.095
	c1.282-1.282,2.99-1.987,4.808-1.987c1.818,0,3.525,0.706,4.809,1.987l0.785,0.759c0.291,0.293,0.676,0.451,1.084,0.451l0,0
	c0.412,0,0.801-0.16,1.092-0.453c0.291-0.289,0.451-0.675,0.451-1.086c0.002-0.41-0.156-0.793-0.445-1.08l-0.771-0.794
	c-0.031-0.033-0.063-0.061-0.094-0.088l-0.254-0.231C21.2,13.884,18.832,12.967,16.366,12.967z"/>
<path fill="#99D5C9" d="M4.332,15.556c-0.601,0-1.165-0.234-1.589-0.66c-0.427-0.427-0.661-0.994-0.661-1.594
	c0.001-0.594,0.233-1.152,0.654-1.572l1.29-1.275c3.297-3.171,7.641-4.917,12.229-4.917c4.291,0,8.422,1.552,11.632,4.371
	c0.081,0.046,0.202,0.144,0.313,0.252l0.396,0.398h0.082l0.096,0.179l0.613,0.611c0.869,0.873,0.866,2.294-0.005,3.169
	c-0.425,0.424-0.989,0.659-1.588,0.659l0,0c-0.599,0-1.157-0.232-1.578-0.652l-0.937-0.936c-2.439-2.305-5.65-3.58-9.029-3.58
	c-3.431,0-6.676,1.31-9.137,3.688l-1.206,1.208C5.488,15.324,4.928,15.556,4.332,15.556z M16.256,6.399
	c-4.364,0-8.496,1.662-11.632,4.679L3.346,12.34c-0.258,0.257-0.401,0.598-0.401,0.961c0,0.371,0.145,0.72,0.409,0.984
	c0.521,0.522,1.427,0.526,1.947,0.007l1.256-1.252c2.582-2.5,6.04-3.896,9.696-3.896c3.601,0,7.021,1.358,9.632,3.823l0.944,0.944
	c0.517,0.517,1.424,0.516,1.944-0.005c0.537-0.539,0.539-1.414,0.004-1.95l-1.185-1.186c-0.065-0.064-0.142-0.125-0.225-0.178
	C24.266,7.875,20.336,6.399,16.256,6.399z"/>
</svg>
