<?xml version="1.0" encoding="utf-8"?>
<!-- Generator: Adobe Illustrator 16.0.0, SVG Export Plug-In . SVG Version: 6.00 Build 0)  -->
<!DOCTYPE svg PUBLIC "-//W3C//DTD SVG 1.1//EN" "http://www.w3.org/Graphics/SVG/1.1/DTD/svg11.dtd">
<svg version="1.1" id="Layer_1" xmlns="http://www.w3.org/2000/svg" xmlns:xlink="http://www.w3.org/1999/xlink" x="0px" y="0px"
	 width="32px" height="32px" viewBox="0 0 32 32" enable-background="new 0 0 32 32" xml:space="preserve">
<path fill="#99D5C9" d="M18.764,30.111c-0.656,0-1.272-0.256-1.736-0.721L2.835,15.199c-0.567-0.564-0.823-1.374-0.682-2.165
	l1.396-7.833c0.18-1.008,0.978-1.806,1.986-1.985l7.832-1.396c0.812-0.144,1.603,0.117,2.167,0.682l14.194,14.193
	c0.465,0.463,0.721,1.08,0.721,1.736c0,0.655-0.258,1.271-0.723,1.734L20.5,29.393C20.037,29.855,19.42,30.111,18.764,30.111z
	 M13.795,2.782c-0.084,0-0.17,0.007-0.254,0.022L5.711,4.2C5.113,4.306,4.64,4.779,4.533,5.376l-1.396,7.833
	c-0.083,0.468,0.068,0.947,0.404,1.281l14.193,14.193c0.55,0.553,1.508,0.553,2.059,0l9.229-9.227
	c0.275-0.273,0.428-0.641,0.428-1.027s-0.151-0.753-0.428-1.027L14.827,3.208C14.552,2.934,14.186,2.782,13.795,2.782z
	 M8.592,10.744L8.592,10.744c-0.672,0-1.301-0.263-1.772-0.741C5.857,9.025,5.869,7.447,6.845,6.485
	c0.948-0.931,2.584-0.919,3.518,0.026c0.962,0.977,0.951,2.554-0.026,3.517C9.869,10.49,9.249,10.744,8.592,10.744z M8.59,6.771
	c-0.393,0-0.764,0.152-1.043,0.427c-0.583,0.575-0.59,1.519-0.014,2.104c0.281,0.285,0.658,0.442,1.06,0.442l0,0
	c0.393,0,0.763-0.152,1.043-0.427c0.584-0.576,0.591-1.519,0.016-2.103C9.369,6.928,8.992,6.771,8.59,6.771z"/>
</svg>
