<?xml version="1.0" encoding="utf-8"?>
<!-- Generator: Adobe Illustrator 16.0.0, SVG Export Plug-In . SVG Version: 6.00 Build 0)  -->
<!DOCTYPE svg PUBLIC "-//W3C//DTD SVG 1.1//EN" "http://www.w3.org/Graphics/SVG/1.1/DTD/svg11.dtd">
<svg version="1.1" id="Layer_1" xmlns="http://www.w3.org/2000/svg" xmlns:xlink="http://www.w3.org/1999/xlink" x="0px" y="0px"
	 width="32px" height="32px" viewBox="0 0 32 32" enable-background="new 0 0 32 32" xml:space="preserve">

	 <path  d="M16.091,30.265c-3.749,0-7.276-1.461-9.93-4.113c-2.651-2.65-4.111-6.174-4.111-9.925
		c0-3.628,1.366-7.045,3.855-9.664L3.192,3.851l8.708,0.015l0.018,8.708l-2.716-2.71c-3.39,3.659-3.309,9.42,0.257,12.99
		c1.77,1.766,4.125,2.738,6.631,2.738s4.858-0.973,6.625-2.738c1.769-1.766,2.742-4.121,2.742-6.626
		c0-2.507-0.974-4.861-2.742-6.629c-0.684-0.688-1.506-1.274-2.446-1.744l-0.246-0.123V2.735l0.588,0.199
		c2.042,0.694,3.862,1.826,5.411,3.366c2.65,2.65,4.11,6.175,4.109,9.927c-0.001,3.749-1.46,7.274-4.109,9.924
		C23.366,28.804,19.839,30.265,16.091,30.265z M6.788,6.932c-2.482,2.481-3.849,5.783-3.849,9.295c0,3.515,1.367,6.813,3.85,9.296
		c2.486,2.484,5.79,3.854,9.302,3.854s6.814-1.369,9.302-3.854c2.48-2.482,3.848-5.783,3.848-9.296
		c0.001-3.514-1.365-6.815-3.848-9.297c-1.3-1.293-2.806-2.279-4.481-2.938v3.195c0.925,0.49,1.742,1.089,2.433,1.784
		c1.935,1.935,3.001,4.512,3.001,7.257c0,2.744-1.066,5.32-3.002,7.255c-1.935,1.934-4.511,2.998-7.254,2.998
		s-5.321-1.064-7.26-2.996c-3.996-4.004-3.996-10.515,0-14.515l0.133-0.167l0.419-0.012l1.643,1.636l-0.012-5.674l-5.669-0.01
		l1.747,1.746L6.788,6.932z"/>
		
</svg>
