<?xml version="1.0" encoding="utf-8"?>
<!-- Generator: Adobe Illustrator 16.0.0, SVG Export Plug-In . SVG Version: 6.00 Build 0)  -->
<!DOCTYPE svg PUBLIC "-//W3C//DTD SVG 1.1//EN" "http://www.w3.org/Graphics/SVG/1.1/DTD/svg11.dtd">
<svg version="1.1" id="Layer_1" xmlns="http://www.w3.org/2000/svg" xmlns:xlink="http://www.w3.org/1999/xlink" x="0px" y="0px"
	 width="32px" height="32px" viewBox="0 0 32 32" enable-background="new 0 0 32 32" xml:space="preserve">
		<rect x="7.616" y="9.68" width="17.239" height="0.732"/>
		<rect x="7.616" y="13.755" width="17.239" height="0.729"/>
		<path d="M25.272,1.208H6.764c-2.356,0-4.271,1.55-4.271,3.466V19.41c0,1.903,1.914,3.461,4.271,3.461h1.412l5.096,7.789
			l0.076,0.132l5.153-7.921h6.771c2.337,0,4.234-1.558,4.234-3.461V4.674C29.507,2.758,27.609,1.208,25.272,1.208z M25.272,22.125
			h-7.169l-4.756,7.307l-4.738-7.263l-0.025-0.044h-1.82c-1.928,0-3.505-1.218-3.505-2.715V4.674c0-1.508,1.577-2.734,3.505-2.734
			h18.509c1.939,0,3.502,1.227,3.502,2.734V19.41C28.774,20.907,27.212,22.125,25.272,22.125z"/>
</svg>
