<?xml version="1.0" encoding="utf-8"?>
<!-- Generator: Adobe Illustrator 16.0.0, SVG Export Plug-In . SVG Version: 6.00 Build 0)  -->
<!DOCTYPE svg PUBLIC "-//W3C//DTD SVG 1.1//EN" "http://www.w3.org/Graphics/SVG/1.1/DTD/svg11.dtd">
<svg version="1.1" id="Layer_1" xmlns="http://www.w3.org/2000/svg" xmlns:xlink="http://www.w3.org/1999/xlink" x="0px" y="0px"
	 width="32px" height="32px" viewBox="0 0 32 32" enable-background="new 0 0 32 32" xml:space="preserve">

	 <path d="M18.279,21.724h-2.608V2.708c0-0.304-0.245-0.55-0.548-0.55H6.637c-0.304,0-0.548,0.246-0.548,0.55v19.016H3.48
			c-0.759,0-0.939,0.435-0.403,0.972l6.829,6.831c0.54,0.537,1.408,0.537,1.945,0l6.832-6.831
			C19.22,22.158,19.039,21.724,18.279,21.724z"/>
			<path d="M26.195,2.046c-0.048-0.114-0.159-0.189-0.28-0.189h-1.607c-0.126,0-0.235,0.076-0.281,0.192l-2.933,7.527
			c-0.035,0.093-0.023,0.198,0.031,0.28c0.058,0.082,0.151,0.131,0.251,0.131h1.611c0.128,0,0.239-0.08,0.284-0.199l0.548-1.512h2.59
			l0.584,1.517c0.045,0.117,0.158,0.193,0.281,0.193h1.654c0.099,0,0.192-0.05,0.25-0.133c0.057-0.083,0.068-0.188,0.03-0.281
			L26.195,2.046z M25.696,6.407h-1.188l0.588-1.617L25.696,6.407z"/>
			<path d="M28.209,20.292h-3.647l3.723-4.587c0.044-0.054,0.067-0.122,0.067-0.189v-1.181c0-0.167-0.134-0.302-0.301-0.302h-5.51
			c-0.166,0-0.301,0.135-0.301,0.302v1.272c0,0.167,0.135,0.301,0.301,0.301h2.874L21.859,20.3c-0.044,0.056-0.067,0.121-0.067,0.19
			v1.371c0,0.166,0.135,0.303,0.303,0.303h6.114c0.168,0,0.301-0.137,0.301-0.303v-1.268C28.51,20.427,28.377,20.292,28.209,20.292z"
			/>
		
</svg>
