<?xml version="1.0" encoding="utf-8"?>
<!-- Generator: Adobe Illustrator 16.0.0, SVG Export Plug-In . SVG Version: 6.00 Build 0)  -->
<!DOCTYPE svg PUBLIC "-//W3C//DTD SVG 1.1//EN" "http://www.w3.org/Graphics/SVG/1.1/DTD/svg11.dtd">
<svg version="1.1" id="Layer_1" xmlns="http://www.w3.org/2000/svg" xmlns:xlink="http://www.w3.org/1999/xlink" x="0px" y="0px"
	 width="32px" height="32px" viewBox="0 0 32 32" enable-background="new 0 0 32 32" xml:space="preserve">
<path fill="#CFD1D3" d="M23.441,5.488h-2.566l-0.307-2.193C20.471,2.583,19.799,2,19.08,2h-6.977c-0.72,0-1.39,0.583-1.49,1.295
	l-0.307,2.193H7.741c-1.446,0-2.616,1.172-2.616,2.618v0.872h20.932V8.106C26.057,6.66,24.887,5.488,23.441,5.488z M12.312,3.744
	h6.559l0.242,1.744h-7.046L12.312,3.744z"/>
<path fill="#CFD1D3" d="M23.875,10.724H7.304c-0.956,0-1.672,0.78-1.586,1.736l1.43,15.712c0.087,0.955,0.942,1.735,1.903,1.735
	h13.08c0.962,0,1.816-0.78,1.903-1.735l1.428-15.712C25.55,11.503,24.836,10.724,23.875,10.724z M12.103,26.422H9.485l-0.872-12.21
	h3.49V26.422z M17.335,26.422h-3.488v-12.21h3.488V26.422z M21.697,26.422H19.08v-12.21h3.486L21.697,26.422z"/>
</svg>
