<?xml version="1.0" encoding="utf-8"?>
<!-- Generator: Adobe Illustrator 16.0.0, SVG Export Plug-In . SVG Version: 6.00 Build 0)  -->
<!DOCTYPE svg PUBLIC "-//W3C//DTD SVG 1.1//EN" "http://www.w3.org/Graphics/SVG/1.1/DTD/svg11.dtd">
<svg version="1.1" id="Layer_1" xmlns="http://www.w3.org/2000/svg" xmlns:xlink="http://www.w3.org/1999/xlink" x="0px" y="0px"
	 width="32px" height="32px" viewBox="0 0 32 32" enable-background="new 0 0 32 32" xml:space="preserve">
<path fill="#CFD1D3" d="M26.177,12.849l-0.708-1.683c0,0,1.649-3.721,1.502-3.863L24.79,5.172c-0.153-0.146-3.873,1.552-3.873,1.552
	l-1.716-0.693c0,0-1.518-3.771-1.725-3.771h-3.081c-0.214,0-1.618,3.777-1.618,3.777l-1.713,0.696c0,0-3.799-1.615-3.945-1.471
	L4.943,7.398c-0.151,0.146,1.583,3.79,1.583,3.79l-0.708,1.681c0,0-3.851,1.483-3.851,1.683v3.019c0,0.21,3.861,1.586,3.861,1.586
	l0.708,1.678c0,0-1.649,3.717-1.504,3.859l2.182,2.137c0.148,0.145,3.87-1.555,3.87-1.555l1.717,0.694c0,0,1.516,3.77,1.726,3.77
	h3.081c0.213,0,1.617-3.778,1.617-3.778l1.719-0.693c0,0,3.791,1.613,3.938,1.474l2.181-2.136c0.152-0.148-1.586-3.789-1.586-3.789
	l0.709-1.683c0,0,3.852-1.485,3.852-1.688v-3.016C30.035,14.219,26.177,12.849,26.177,12.849z M20.5,15.999
	c0,2.427-2.018,4.403-4.499,4.403c-2.478,0-4.5-1.978-4.5-4.403s2.022-4.4,4.5-4.4C18.482,11.599,20.5,13.572,20.5,15.999z"/>
</svg>
