<?xml version="1.0" encoding="utf-8"?>
<!-- Generator: Adobe Illustrator 16.0.0, SVG Export Plug-In . SVG Version: 6.00 Build 0)  -->
<!DOCTYPE svg PUBLIC "-//W3C//DTD SVG 1.1//EN" "http://www.w3.org/Graphics/SVG/1.1/DTD/svg11.dtd">
<svg version="1.1" id="Layer_1" xmlns="http://www.w3.org/2000/svg" xmlns:xlink="http://www.w3.org/1999/xlink" x="0px" y="0px"
	 width="32px" height="32px" viewBox="0 0 32 32" enable-background="new 0 0 32 32" xml:space="preserve">

	 <path  d="M23.105,16.818c0.505,0.855,0.759,1.854,0.759,2.998c0,1.755-0.524,3.219-1.569,4.389
			c-1.045,1.172-2.554,1.862-4.529,2.07v3.006h-2.517v-2.99c-3.291-0.338-5.327-2.252-6.113-5.738l3.892-1.016
			c0.361,2.193,1.553,3.288,3.579,3.288c0.947,0,1.647-0.233,2.095-0.703c0.444-0.47,0.669-1.035,0.669-1.699
			c0-0.688-0.225-1.208-0.669-1.562c-0.447-0.355-1.44-0.805-2.979-1.349c-1.382-0.479-2.466-0.952-3.242-1.425
			c-0.779-0.467-1.411-1.123-1.897-1.965c-0.485-0.846-0.729-1.832-0.729-2.953c0-1.471,0.437-2.797,1.304-3.974
			c0.866-1.176,2.231-1.895,4.094-2.155V2.719h2.515v2.322c2.813,0.336,4.634,1.927,5.462,4.772l-3.467,1.421
			c-0.677-1.951-1.719-2.925-3.135-2.925c-0.711,0-1.282,0.218-1.712,0.653s-0.645,0.965-0.645,1.584c0,0.634,0.208,1.119,0.623,1.459
			c0.412,0.337,1.301,0.754,2.661,1.255c1.494,0.544,2.666,1.062,3.516,1.546C21.919,15.292,22.598,15.963,23.105,16.818z"/>
		
</svg>
