<?xml version="1.0" encoding="utf-8"?>
<!-- Generator: Adobe Illustrator 16.0.0, SVG Export Plug-In . SVG Version: 6.00 Build 0)  -->
<!DOCTYPE svg PUBLIC "-//W3C//DTD SVG 1.1//EN" "http://www.w3.org/Graphics/SVG/1.1/DTD/svg11.dtd">
<svg version="1.1" id="Layer_1" xmlns="http://www.w3.org/2000/svg" xmlns:xlink="http://www.w3.org/1999/xlink" x="0px" y="0px"
	 width="32px" height="32px" viewBox="0 0 32 32" enable-background="new 0 0 32 32" xml:space="preserve">
<path fill="#CFD1D3" d="M1.965,30.068l1.917-9.039L22.857,2.055l0.131-0.029c0,0,0.129-0.028,0.369-0.028
	c0.64,0,2.35,0.222,4.402,2.275c2.639,2.638,2.266,4.688,2.246,4.773l-0.023,0.127L11.003,28.152L1.965,30.068z M3.864,25.251
	l-0.786,3.706l3.81-0.809c-0.284-0.489-0.654-1.034-1.349-1.688C4.9,25.857,4.356,25.514,3.864,25.251z M4.325,24.523
	c0.531,0.287,1.117,0.666,1.803,1.313c0.694,0.653,1.106,1.226,1.404,1.715l3.066-0.622l0.763-0.718
	c-0.079-0.471-0.435-1.83-2.024-3.327c-1.645-1.55-3.113-1.859-3.59-1.923l-0.772,0.729L4.325,24.523z M5.992,20.133
	c0.702,0.115,2.251,0.544,3.932,2.127c1.535,1.446,2.053,2.797,2.227,3.531L29.176,8.768c0.018-0.414-0.072-1.939-2.021-3.887
	C25.213,2.94,23.7,2.841,23.27,2.859L5.992,20.133z"/>
</svg>
