<?xml version="1.0" encoding="utf-8"?>
<!-- Generator: Adobe Illustrator 16.0.0, SVG Export Plug-In . SVG Version: 6.00 Build 0)  -->
<!DOCTYPE svg PUBLIC "-//W3C//DTD SVG 1.1//EN" "http://www.w3.org/Graphics/SVG/1.1/DTD/svg11.dtd">
<svg version="1.1" id="Layer_1" xmlns="http://www.w3.org/2000/svg" xmlns:xlink="http://www.w3.org/1999/xlink" x="0px" y="0px"
	 width="32px" height="32px" viewBox="0 0 32 32" enable-background="new 0 0 32 32" xml:space="preserve">
		<rect x="10.639" y="22.734"  width="10.368" height="1.727"/>
		<path  d="M8.911,3.729h13.823v3.455h1.727V3.729C24.461,2.774,23.688,2,22.734,2H8.911
		C7.957,2,7.184,2.774,7.184,3.729v3.455h1.728V3.729z"/>
		<rect x="10.639" y="19.277"  width="10.368" height="1.728"/>
		<path  d="M27.917,8.911H3.728C2.773,8.911,2,9.686,2,10.639v10.366c0,0.956,0.773,1.729,1.728,1.729h3.456v5.181
		c0,0.957,0.773,1.729,1.728,1.729h13.823c0.954,0,1.727-0.772,1.727-1.729v-5.181h3.456c0.955,0,1.728-0.773,1.728-1.729V10.639
		C29.645,9.686,28.872,8.911,27.917,8.911z M22.734,27.915H8.911V17.551h13.823V27.915z M26.19,14.095
		c-0.957,0-1.729-0.774-1.729-1.728c0-0.952,0.772-1.728,1.729-1.728c0.953,0,1.727,0.776,1.727,1.728
		C27.917,13.321,27.144,14.095,26.19,14.095z"/>
</svg>
