<?xml version="1.0" encoding="utf-8"?>
<!-- Generator: Adobe Illustrator 16.0.0, SVG Export Plug-In . SVG Version: 6.00 Build 0)  -->
<!DOCTYPE svg PUBLIC "-//W3C//DTD SVG 1.1//EN" "http://www.w3.org/Graphics/SVG/1.1/DTD/svg11.dtd">
<svg version="1.1" id="Layer_1" xmlns="http://www.w3.org/2000/svg" xmlns:xlink="http://www.w3.org/1999/xlink" x="0px" y="0px"
	 width="32px" height="32px" viewBox="0 0 32 32" enable-background="new 0 0 32 32" xml:space="preserve">
<path fill="#CFD1D3" d="M19.363,7.635c0,0.213,0.018,0.412,0.051,0.606L11.118,12.4c-0.911-0.874-2.117-1.412-3.485-1.412
	c-2.771,0-5.006,2.241-5.006,5.013c0,2.774,2.235,5.013,5.006,5.013c1.369,0,2.575-0.537,3.485-1.414l8.296,4.157
	c-0.033,0.199-0.051,0.394-0.051,0.607c0,2.776,2.226,5.012,5.007,5.012c2.774,0,5.004-2.235,5.004-5.012
	c0-2.771-2.229-5.034-5.004-5.034c-1.356,0-2.574,0.561-3.485,1.413l-8.291-4.136c0.025-0.196,0.075-0.395,0.075-0.606
	c0-0.218-0.05-0.413-0.075-0.61l8.291-4.134c0.911,0.851,2.129,1.39,3.485,1.39c2.774,0,5.004-2.244,5.004-5.012
	c0-2.776-2.229-5.013-5.004-5.013C21.589,2.622,19.363,4.859,19.363,7.635z"/>
</svg>
