<?xml version="1.0" encoding="utf-8"?>
<!-- Generator: Adobe Illustrator 16.0.0, SVG Export Plug-In . SVG Version: 6.00 Build 0)  -->
<!DOCTYPE svg PUBLIC "-//W3C//DTD SVG 1.1//EN" "http://www.w3.org/Graphics/SVG/1.1/DTD/svg11.dtd">
<svg version="1.1" id="Layer_1" xmlns="http://www.w3.org/2000/svg" xmlns:xlink="http://www.w3.org/1999/xlink" x="0px" y="0px"
	 width="32px" height="32px" viewBox="0 0 32 32" enable-background="new 0 0 32 32" xml:space="preserve">

	 <path  d="M18.048,29.128h-3.35v-2.904c-3.096-0.463-5.05-2.406-5.812-5.781l-0.102-0.449l4.658-1.216l0.085,0.515
		c0.307,1.864,1.241,2.733,2.939,2.733c0.766,0,1.321-0.176,1.65-0.521c0.341-0.36,0.507-0.783,0.507-1.291
		c0-0.505-0.15-0.869-0.458-1.114c-0.263-0.208-0.943-0.588-2.699-1.208c-1.374-0.478-2.415-0.936-3.177-1.4
		c-0.804-0.482-1.469-1.169-1.973-2.041c-0.504-0.878-0.759-1.904-0.759-3.051c0-1.498,0.449-2.866,1.335-4.068
		c0.834-1.132,2.114-1.863,3.807-2.176V2.872h3.348v2.276c2.64,0.449,4.383,2.07,5.185,4.826l0.119,0.411l-4.164,1.707l-0.166-0.475
		c-0.574-1.66-1.404-2.466-2.536-2.466c-0.55,0-0.973,0.157-1.292,0.48c-0.321,0.325-0.477,0.709-0.477,1.174
		c0,0.457,0.137,0.791,0.419,1.021c0.237,0.194,0.846,0.546,2.397,1.117c1.43,0.521,2.581,1.028,3.421,1.506
		c0.877,0.502,1.589,1.204,2.112,2.087c0.525,0.889,0.79,1.931,0.79,3.1c0,1.784-0.543,3.297-1.616,4.498
		c-0.994,1.115-2.403,1.812-4.193,2.075V29.128z M15.65,28.176h1.445v-2.816l0.426-0.045c1.751-0.184,3.1-0.795,4.01-1.815
		c0.911-1.021,1.374-2.321,1.374-3.863c0-0.996-0.222-1.876-0.657-2.614c-0.438-0.739-1.032-1.326-1.766-1.745
		c-0.793-0.452-1.895-0.936-3.275-1.439c-1.385-0.51-2.234-0.914-2.674-1.274c-0.51-0.417-0.769-1.009-0.769-1.759
		c0-0.717,0.253-1.338,0.751-1.843c0.5-0.507,1.163-0.764,1.97-0.764c1.441,0,2.536,0.886,3.258,2.636l2.444-1.001
		c-0.784-2.273-2.316-3.518-4.674-3.799l-0.419-0.05V3.825h-1.443v2.15l-0.41,0.057c-1.634,0.229-2.84,0.856-3.583,1.864
		c-0.762,1.035-1.149,2.213-1.149,3.503c0,0.979,0.212,1.846,0.632,2.576c0.421,0.729,0.973,1.301,1.639,1.701
		c0.698,0.425,1.706,0.867,3,1.316c1.533,0.542,2.506,0.986,2.978,1.361c0.542,0.432,0.816,1.058,0.816,1.86
		c0,0.753-0.259,1.408-0.768,1.946c-0.518,0.543-1.305,0.818-2.341,0.818c-1.993,0-3.289-1.041-3.775-3.021L9.926,20.68
		c0.77,2.841,2.506,4.363,5.297,4.65l0.427,0.043V28.176z"/>
		
</svg>
