<?xml version="1.0" encoding="utf-8"?>
<!-- Generator: Adobe Illustrator 16.0.0, SVG Export Plug-In . SVG Version: 6.00 Build 0)  -->
<!DOCTYPE svg PUBLIC "-//W3C//DTD SVG 1.1//EN" "http://www.w3.org/Graphics/SVG/1.1/DTD/svg11.dtd">
<svg version="1.1" id="Layer_1" xmlns="http://www.w3.org/2000/svg" xmlns:xlink="http://www.w3.org/1999/xlink" x="0px" y="0px"
	 width="32px" height="32px" viewBox="0 0 32 32" enable-background="new 0 0 32 32" xml:space="preserve">

	 <path  d="M16.127,26.792c-1.983,0-3.597-1.614-3.597-3.598c0-1.982,1.613-3.597,3.597-3.597
			c1.982,0,3.596,1.614,3.596,3.597C19.723,25.178,18.109,26.792,16.127,26.792z M16.127,20.46c-1.508,0-2.734,1.227-2.734,2.734
			s1.227,2.735,2.734,2.735c1.507,0,2.733-1.228,2.733-2.735S17.634,20.46,16.127,20.46z"/>
		<path  d="M9.381,20.479c-0.647,0-1.255-0.253-1.712-0.71c-0.457-0.455-0.708-1.062-0.71-1.708
			c0-0.646,0.25-1.251,0.704-1.707l1.09-1.093c2.036-2.036,4.739-3.156,7.612-3.156c2.681,0,5.255,0.996,7.248,2.805
			c0.036,0.026,0.066,0.051,0.098,0.082l0.134,0.13c0.063,0.055,0.113,0.1,0.159,0.149l0.761,0.784
			c0.449,0.445,0.699,1.047,0.695,1.688c0,0.641-0.251,1.243-0.705,1.695c-0.453,0.454-1.058,0.704-1.7,0.704l0,0
			c-0.64,0-1.24-0.247-1.69-0.698l-0.784-0.759c-1.125-1.124-2.615-1.74-4.204-1.74s-3.08,0.616-4.199,1.735l-1.095,1.094
			C10.63,20.229,10.025,20.479,9.381,20.479z M16.366,12.967c-2.642,0-5.129,1.031-7.001,2.903l-1.091,1.094
			c-0.292,0.292-0.452,0.681-0.452,1.096c0,0.416,0.163,0.807,0.457,1.099c0.587,0.589,1.611,0.59,2.194,0.006l1.096-1.094
			c1.282-1.283,2.99-1.988,4.808-1.988c1.819,0,3.526,0.706,4.808,1.988l0.785,0.758c0.292,0.293,0.676,0.451,1.085,0.451l0,0
			c0.412,0,0.8-0.16,1.092-0.453c0.29-0.289,0.45-0.674,0.45-1.086c0.002-0.41-0.156-0.793-0.445-1.08l-0.771-0.794
			c-0.031-0.033-0.063-0.061-0.094-0.088l-0.254-0.231C21.2,13.884,18.832,12.967,16.366,12.967z"/>
		<path  d="M4.332,15.556c-0.601,0-1.165-0.234-1.589-0.66c-0.427-0.427-0.661-0.994-0.661-1.594
			c0.001-0.594,0.233-1.152,0.654-1.572l1.29-1.275c3.297-3.171,7.641-4.917,12.229-4.917c4.291,0,8.422,1.552,11.631,4.371
			c0.082,0.046,0.203,0.144,0.314,0.252l0.396,0.398h0.082l0.096,0.179l0.613,0.611c0.869,0.873,0.866,2.294-0.005,3.169
			c-0.425,0.424-0.989,0.659-1.588,0.659l0,0c-0.598,0-1.157-0.232-1.578-0.652l-0.936-0.936c-2.44-2.305-5.651-3.58-9.03-3.58
			c-3.431,0-6.676,1.31-9.137,3.688l-1.206,1.208C5.488,15.324,4.928,15.556,4.332,15.556z M16.256,6.399
			c-4.364,0-8.496,1.662-11.632,4.679L3.346,12.34c-0.258,0.257-0.401,0.598-0.401,0.961c0,0.371,0.145,0.72,0.409,0.984
			c0.521,0.522,1.427,0.526,1.947,0.007l1.256-1.252c2.582-2.5,6.04-3.896,9.696-3.896c3.601,0,7.021,1.358,9.632,3.823l0.944,0.944
			c0.516,0.517,1.424,0.516,1.945-0.005c0.536-0.539,0.539-1.414,0.004-1.95l-1.185-1.186c-0.065-0.064-0.142-0.125-0.225-0.178
			C24.265,7.875,20.336,6.399,16.256,6.399z"/>
		
</svg>
